<?xml version="1.0" standalone="no"?><!DOCTYPE svg PUBLIC "-//W3C//DTD SVG 1.1//EN" "http://www.w3.org/Graphics/SVG/1.1/DTD/svg11.dtd"><svg t="1566977946754" class="icon" viewBox="0 0 1024 1024" version="1.1" xmlns="http://www.w3.org/2000/svg" p-id="6545" xmlns:xlink="http://www.w3.org/1999/xlink" width="128" height="128"><defs><style type="text/css"></style></defs><path d="M663.68 663.04l140.16 0.64V128c0-17.6-14.08-32-32-32H256c-17.6 0-32 14.4-32 32v747.2c0 17.92 14.4 32 32 32h344.64l-0.64-179.84c0-17.28 6.4-33.28 18.56-45.44 12.16-12.16 28.16-18.88 45.12-18.88z m0.96 188.8l104.32-124.16-104.96-0.64 0.64 124.8zM867.84 128c0.96 251.2 1.6 440.64 1.6 568 0 7.36-2.528 14.4-7.36 20.16-0.32 0.64-0.96 1.6-1.6 2.24l-200.96 238.72a20.384 20.384 0 0 1-2.56 3.2c-0.32 0.64-0.96 0.96-1.28 1.6-0.96 0.96-2.24 2.24-3.52 2.88-1.92 1.28-3.808 2.56-5.76 3.52-4.16 1.92-8.96 2.88-13.44 2.88H256c-52.8 0-96-42.88-96-96V128c0-52.8 43.2-96 96-96h515.84c53.12 0 96 43.2 96 96z m-168.64 123.008a32 32 0 0 1 0 64H330.112a32 32 0 0 1 0-64H699.2z m-128 157.312a32 32 0 0 1 0 64h-241.088a32 32 0 0 1 0-64h241.088z" p-id="6546" fill="#8a8a8a"></path></svg>