<?xml version="1.0" standalone="no"?><!DOCTYPE svg PUBLIC "-//W3C//DTD SVG 1.1//EN" "http://www.w3.org/Graphics/SVG/1.1/DTD/svg11.dtd"><svg t="1567405217444" class="icon" viewBox="0 0 1024 1024" version="1.1" xmlns="http://www.w3.org/2000/svg" p-id="3216" data-spm-anchor-id="a313x.7781069.0.i1" xmlns:xlink="http://www.w3.org/1999/xlink" width="128" height="128"><defs><style type="text/css"></style></defs><path d="M133.2 239.6L658.8 956c4 5.2 11.6 6.4 16.8 2.4l228.8-172c5.2-4 6.4-11.6 2.4-16.8L377.6 63.2c-4-5.2-11.2-6.4-16.8-2.4L136 222.8c-5.6 3.6-6.8 11.2-2.8 16.8z" fill="#D2C7B5" p-id="3217"></path><path d="M164 281.2l94.4-67.2c10.4-7.6 24.8-4.8 32.4 5.6 7.6 10.4 4.8 24.8-5.6 32.4L191.2 318.8 164 281.2zM588 859.2l94-66c10.4-7.6 24.8-4.8 32.4 5.6s4.8 24.8-5.6 32.4l-93.2 66-27.6-38zM220.8 359.2l129.6-93.6c10.4-7.6 24.8-5.2 32.4 5.2 7.6 10.4 5.2 24.8-5.2 32.4L248.4 396.4l-27.6-37.2zM534 785.6l129.6-93.6c10.4-7.6 24.8-5.2 32.4 5.2 7.6 10.4 5.2 24.8-5.2 32.4l-129.2 93.6-27.6-37.6z" fill="#A49273" p-id="3218"></path><path d="M986.4 255.2l-78.8-106.4c-26.4-35.6-76.4-42.8-112-16.8l-92.8 68.8 174 234.8 92.8-68.8c35.6-26 42.8-76.4 16.8-111.6zM48 885.6l326-90-163.6-224.4-180 290c-4.8 7.6-2.4 17.2 5.2 22 3.6 2.8 8.4 3.6 12.4 2.4zM244.4 546.8l168.4 228.4 422.8-313.6L664.8 232z" fill="#A49273" p-id="3219" data-spm-anchor-id="a313x.7781069.0.i0"></path></svg>