<?xml version="1.0" standalone="no"?><!DOCTYPE svg PUBLIC "-//W3C//DTD SVG 1.1//EN" "http://www.w3.org/Graphics/SVG/1.1/DTD/svg11.dtd"><svg t="1568185192484" class="icon" viewBox="0 0 1090 1024" version="1.1" xmlns="http://www.w3.org/2000/svg" p-id="1346" width="136.25" height="128" xmlns:xlink="http://www.w3.org/1999/xlink"><defs><style type="text/css"></style></defs><path d="M769.719718 273.012715L24.159364 1023.976198a23.802329 23.802329 0 0 1-16.114177-6.260013 23.516701 23.516701 0 0 1-1.380535-33.323261c126.152344-135.887497 328.829176-217.029637 541.979034-217.029636 211.65031 0 406.591386 76.381674 534.933544 209.460496a23.516701 23.516701 0 0 1-0.737872 33.32326 23.945143 23.945143 0 0 1-33.656494-0.737872c-119.36868-123.891123-301.813533-194.941075-500.515376-194.941075-200.082378 0-389.620325 75.429581-506.98961 201.796146a23.802329 23.802329 0 0 1-17.518514 7.711955z m123.867321 252.780735H612.362521a23.968945 23.968945 0 0 1-13.59113-4.260617l-58.077683-40.130727-49.342228 39.178634a23.802329 23.802329 0 0 1-14.876456 5.188907H179.493364a23.802329 23.802329 0 0 1-16.875852-6.95028 23.564306 23.564306 0 0 1-6.926477-16.780642l1.547151-307.145254a23.802329 23.802329 0 0 1 23.802329-23.516702H892.111294a23.802329 23.802329 0 0 1 23.80233 23.516702l1.475744 307.050045a23.540503 23.540503 0 0 1-6.926478 16.780642 23.802329 23.802329 0 0 1-16.875851 7.069292z m-273.726785-47.271426h249.924456l-1.356733-259.873829H204.652426l-1.237722 259.873829h264.729505L524.841357 433.464215a23.802329 23.802329 0 0 1 28.562794-0.952093z m160.879943-165.211966h-142.813975a23.635713 23.635713 0 1 1 0-47.271426h142.813975a23.635713 23.635713 0 1 1-0.023803 47.271426z m-110.109575 502.229144H414.684177a213.721113 213.721113 0 0 1-214.220961-212.721415v-98.446433a23.802329 23.802329 0 0 1 47.604658 0v98.470235a166.235466 166.235466 0 0 0 166.616303 165.44999h255.922643a166.235466 166.235466 0 0 0 166.616304-165.44999v-102.350015a23.802329 23.802329 0 0 1 47.604658 0v102.350015a213.721113 213.721113 0 0 1-214.220962 212.697613z m190.418633-602.674973a23.802329 23.802329 0 0 1-23.802329-23.635713c0-97.946584-83.688989-141.814277-166.616304-141.814276H414.684177c-82.951117 0-166.616304 43.84389-166.616303 141.814276a23.802329 23.802329 0 0 1-47.604658 0c0-111.323493 88.068618-189.085702 214.220961-189.085702h255.922643c126.152344 0 214.220962 77.738407 214.220962 189.085702a23.802329 23.802329 0 0 1-23.778527 23.635713zM167.711211 472.833267H98.279817a23.802329 23.802329 0 0 1-23.802329-23.635712v-189.0619a23.802329 23.802329 0 0 1 23.802329-23.635713h69.431394a23.635713 23.635713 0 1 1 0 47.271425H122.082146v141.814277h45.629065a23.635713 23.635713 0 1 1 0 47.247623z m805.423212 0h-69.431394a23.635713 23.635713 0 1 1 0-47.271425h45.629065v-141.790475h-45.629065a23.635713 23.635713 0 1 1 0-47.271425h69.431394a23.802329 23.802329 0 0 1 23.802329 23.635713v189.085702a23.802329 23.802329 0 0 1-23.802329 23.61191zM530.744334 732.826108c-93.447944 0-113.084866-61.052974-113.084865-112.275586a23.802329 23.802329 0 0 1 23.802329-23.635713h178.517468a23.802329 23.802329 0 0 1 23.802329 23.635713c0.047605 51.222612-19.589317 112.275586-113.037261 112.275586z m-63.504614-88.639873c5.760164 29.752911 24.754422 41.368448 63.504614 41.368448s57.74445-11.615537 63.504614-41.368448H467.23972z" p-id="1347" fill=""></path></svg>